<svg width="888" height="424" viewBox="0 0 888 424" fill="none" xmlns="http://www.w3.org/2000/svg">
<g clip-path="url(#clip0_702_2)">
<path d="M341 0H13V420H341V0Z" fill="#E6E6E6"/>
<path d="M318.547 25.3257H34.7721V204.988H318.547V25.3257Z" fill="white"/>
<path d="M318.55 197.62H34.77V390.18H318.55V197.62Z" fill="white"/>
<path d="M184.03 24.4043H169.289V204.988H184.03V24.4043Z" fill="#272727"/>
<path d="M318.547 24.4043H303.805V204.988H318.547V24.4043Z" fill="#272727"/>
<path d="M318.547 190.247H34.7721V204.988H318.547V190.247Z" fill="#272727"/>
<path d="M74.876 122.067L49.514 139.115V153.219L87.935 122.067H74.876Z" fill="white"/>
<path d="M116.663 122.067L49.514 174.634V186.649L137.034 122.067H116.663Z" fill="#E6E6E6"/>
<path d="M49.5137 24.4043H34.7721V204.988H49.5137V24.4043Z" fill="#272727"/>
<path d="M277.543 39.146L220.884 111.011L238.39 112.853L287.221 36.382L277.543 39.146Z" fill="#E6E6E6"/>
<path d="M318.547 24.4043H34.7721V39.1459H318.547V24.4043Z" fill="#272727"/>
<path d="M318.547 107.326H34.7721V122.067H318.547V107.326Z" fill="#272727"/>
<path d="M878 0H550V420H878V0Z" fill="#E6E6E6"/>
<path d="M855.524 24.7977H571.749V204.46H855.524V24.7977Z" fill="white"/>
<path d="M855.52 197.09H571.75V389.65H855.52V197.09Z" fill="white"/>
<path d="M721.007 23.8764H706.265V204.46H721.007V23.8764Z" fill="#272727"/>
<path d="M855.524 23.8764H840.782V204.46H855.524V23.8764Z" fill="#272727"/>
<path d="M855.524 189.719H571.749V204.46H855.524V189.719Z" fill="#272727"/>
<path d="M611.853 121.539L586.49 138.588V152.691L624.911 121.539H611.853Z" fill="#E6E6E6"/>
<path d="M653.64 121.539L586.49 174.106V186.121L674.011 121.539H653.64Z" fill="#E6E6E6"/>
<path d="M586.49 23.8764H571.749V204.46H586.49V23.8764Z" fill="#272727"/>
<path d="M814.52 38.618L757.861 110.483L775.366 112.325L824.198 35.854L814.52 38.618Z" fill="#E6E6E6"/>
<path d="M855.524 23.8764H571.749V38.618H855.524V23.8764Z" fill="#272727"/>
<path d="M855.524 106.798H571.749V121.539H855.524V106.798Z" fill="#272727"/>
<path d="M707.36 240.744C707.36 240.744 708.44 244.342 702.322 247.581C696.205 250.819 694.406 263.054 701.603 266.652C708.799 270.251 710.958 274.929 707.36 278.167C703.762 281.406 697.285 290.042 705.921 292.201C714.557 294.36 715.636 298.678 713.117 300.477C710.599 302.276 718.875 297.238 718.875 297.238C718.875 297.238 720.314 305.875 727.871 303.716C735.427 301.556 756.658 260.535 745.863 254.778C735.068 249.02 707.36 240.744 707.36 240.744Z" fill="#272727"/>
<path d="M697.54 322.81L663.014 347.072C663.014 347.072 636.885 320.011 636.885 304.147C636.885 288.284 622.888 258.423 616.356 270.554C609.824 282.685 623.821 311.613 623.821 311.613L649.949 373.201C649.949 373.201 664.88 376 673.278 369.468C681.677 362.936 705.005 349.872 705.005 349.872L697.54 322.81Z" fill="#FFB9B9"/>
<path d="M731.6 282.218C746.03 282.218 757.728 270.52 757.728 256.09C757.728 241.66 746.03 229.962 731.6 229.962C717.17 229.962 705.472 241.66 705.472 256.09C705.472 270.52 717.17 282.218 731.6 282.218Z" fill="#FFB9B9"/>
<path d="M718.069 274.286C718.069 274.286 727.401 298.548 723.668 304.147C719.936 309.746 715.27 309.746 711.537 311.613C709.671 312.546 690.075 320.011 690.075 325.61C690.165 329.207 691.125 332.729 692.874 335.875L695.674 351.738L719.003 366.669L749.797 362.936L773.125 349.872C773.125 349.872 776.858 315.345 766.593 309.746C756.329 304.147 744.198 291.083 745.131 286.417C746.064 281.752 746.997 270.554 746.997 270.554L718.069 274.286Z" fill="#FFB9B9"/>
<path d="M767.53 345.21V345.24L766.69 353.48L765.62 364.05L764.4 376L763.02 389.65H695.4C694.49 382.19 692.88 374.28 690.07 369.47C688.304 366.608 687.517 363.249 687.83 359.9C688.46 353.65 692.87 349.29 692.87 348.01C692.87 346.61 685.01 338.4 681.08 334.37C679.76 333.02 678.88 332.14 678.88 332.14L691.01 322.81L691.18 323.1L692.88 326.08L698.47 335.87L696.61 343.34C696.61 343.34 699.5 343.84 703.52 344.48C710.47 345.57 720.81 347.07 725.53 347.07C729.91 347.07 735.26 349.32 739.68 350.61C739.82 350.65 739.95 350.69 740.08 350.73C742.86 351.51 745.24 351.87 746.74 350.97C746.83 350.919 746.917 350.862 747 350.8C747.782 350.27 748.629 349.844 749.52 349.53H749.53C752.762 348.386 756.07 347.471 759.43 346.79C763.21 345.96 766.53 345.38 767.34 345.24L767.345 345.237L767.35 345.236L767.355 345.237L767.36 345.24C767.47 345.22 767.53 345.21 767.53 345.21Z" fill="#EFEAE5"/>
<path d="M770.44 343.79C770.37 344.29 770.31 344.8 770.25 345.3C769.96 347.5 769.72 349.7 769.51 351.9C768.93 357.74 768.58 363.597 768.46 369.47C768.426 371.663 768.195 373.848 767.77 376C766.842 380.631 765.592 385.192 764.03 389.65H737.61C738.31 384.45 739.25 376.45 739.71 368.07V368.06C739.78 366.76 739.83 365.45 739.88 364.14C740.053 359.737 739.993 355.327 739.7 350.93C739.69 350.82 739.69 350.71 739.68 350.61C739.63 350.04 739.58 349.49 739.53 348.94C737.67 330.28 748.86 309.75 748.86 309.75C752.65 309.75 756.35 311.84 759.65 314.72C763.68 318.321 766.769 322.851 768.649 327.917C770.53 332.983 771.144 338.432 770.44 343.79Z" fill="#FFB9B9"/>
<path opacity="0.1" d="M768.46 369.47C768.426 371.663 768.195 373.848 767.77 376C766.842 380.631 765.592 385.192 764.03 389.65H737.41C738.223 381.243 738.474 372.791 738.16 364.35C738.11 363.11 738.04 361.85 737.94 360.6V360.58C737.87 359.5 737.78 358.42 737.67 357.34C737.506 356.092 737.573 354.824 737.87 353.6V353.58C738.083 352.65 738.592 351.815 739.32 351.2C739.438 351.099 739.565 351.008 739.7 350.93C739.819 350.85 739.946 350.783 740.08 350.73C740.202 350.663 740.329 350.606 740.46 350.56C741.503 350.215 742.613 350.119 743.7 350.28C744.735 350.403 745.753 350.635 746.74 350.97C751.147 352.584 755.263 354.901 758.93 357.83C761.368 359.667 763.61 361.752 765.62 364.05C767.38 366.13 768.46 368.05 768.46 369.47Z" fill="black"/>
<path d="M736.732 355.471L739.708 368.068L756.329 376H770.326L776.858 346.139C776.858 346.139 765.325 343.7 759.427 346.786C753.529 349.872 739.679 350.61 739.679 350.61L736.732 355.471Z" fill="#EFEAE5"/>
<path d="M731.814 229.866C731.814 229.866 733.01 233.852 726.233 237.44C719.456 241.027 717.463 254.581 725.436 258.567C733.408 262.553 735.8 267.735 731.814 271.323C727.827 274.911 720.652 284.478 730.219 286.87C739.786 289.261 740.982 294.045 738.192 296.038C735.401 298.031 744.57 292.45 744.57 292.45C744.57 292.45 746.164 302.018 754.536 299.626C762.907 297.234 771.259 253.757 761.928 242.559C753.251 232.147 731.814 229.866 731.814 229.866Z" fill="#272727"/>
<path d="M729.267 225.763C729.269 219.923 765.567 226.334 773.058 234.488C778.246 240.134 786.125 248.63 779.523 254.618C772.92 260.606 772.014 266.241 776.82 268.621C781.626 271.001 791.115 278.279 782.547 283.162C773.979 288.045 774.117 292.974 777.342 294.141C780.566 295.307 770.233 292.405 770.233 292.405C770.233 292.405 771.277 302.048 762.571 302.002C753.865 301.956 728.888 254.11 734.854 240.811C740.402 228.445 729.267 225.763 729.267 225.763Z" fill="#272727"/>
<path d="M733.052 224.483C709.687 223.076 707.342 240.664 707.342 240.664C707.503 250.842 723.666 245.882 728.156 247.4C733.572 243.503 744.011 236.132 751.477 230.871C746.057 227.054 739.671 224.84 733.052 224.483Z" fill="#272727"/>
<path d="M441.45 294.375L440.984 294.386L443.083 389.768L443.549 389.758L441.45 294.375Z" fill="#4F5B4B"/>
<path d="M442.093 336.512C442.069 336.43 439.757 328.266 444.611 320.479L445.007 320.725C440.262 328.338 442.517 336.301 442.54 336.381L442.093 336.512Z" fill="#4F5B4B"/>
<path d="M444.729 320.922C444.729 320.922 443.23 310.68 457.034 307.869C459.91 307.283 462.614 306.883 465.092 306.617C468.018 306.302 469.159 310.306 466.516 311.6C462.689 313.473 459.088 315.833 457.212 318.628C452.036 326.336 444.729 320.922 444.729 320.922Z" fill="#828D7B"/>
<path d="M442.907 366.129L442.46 365.998C442.483 365.919 444.734 357.948 439.993 350.343L440.389 350.096C445.243 357.884 442.931 366.048 442.907 366.129Z" fill="#4F5B4B"/>
<path d="M440.271 350.539C440.271 350.539 441.77 340.297 427.966 337.487C425.09 336.901 422.386 336.501 419.908 336.234C416.982 335.919 415.841 339.924 418.484 341.217C422.311 343.091 425.912 345.451 427.788 348.246C432.964 355.954 440.271 350.539 440.271 350.539Z" fill="#828D7B"/>
<path d="M459.484 281.125C462.263 280.393 464.861 279.116 464.775 277.853C464.673 276.353 460.815 275.348 457.487 275.195C459.997 273.231 462.304 270.516 461.598 269.289C460.95 268.16 457.933 268.597 455.15 269.591C456.797 267.237 457.955 264.583 457.073 263.675C455.975 262.544 452.076 264.496 449.415 266.654C449.933 263.292 449.672 259.049 448.164 258.665C446.902 258.344 445.114 260.812 443.888 263.501C443.347 260.679 442.25 258 440.984 258C439.181 258 437.719 263.437 437.719 266.979C437.719 267.179 437.725 267.367 437.734 267.547C437.553 267.337 437.345 267.118 437.109 266.889C434.568 264.421 429.649 261.682 428.393 262.975C427.511 263.884 428.669 266.537 430.316 268.892C427.533 267.897 424.517 267.46 423.868 268.589C422.997 270.106 426.721 273.892 429.748 275.728C429.566 275.706 429.375 275.687 429.172 275.673C425.638 275.432 420.115 276.521 419.992 278.32C419.906 279.582 422.504 280.859 425.283 281.592C422.516 282.632 419.932 284.247 420.166 285.528C420.451 287.082 424.794 287.626 428.208 287.307C425.657 289.755 422.891 294.139 424.046 295.424C424.891 296.366 427.617 295.391 430.079 293.908C428.898 296.617 428.256 299.597 429.338 300.321C430.768 301.277 434.689 297.948 436.757 295.084C436.546 298.588 437.385 303.402 439.049 303.592C440.306 303.736 441.7 301.198 442.558 298.456C443.471 301.267 444.967 303.923 446.257 303.746C447.934 303.518 448.666 298.583 448.353 295.076C450.485 297.822 454.075 300.76 455.429 299.854C456.511 299.13 455.869 296.151 454.688 293.442C457.149 294.925 459.875 295.899 460.721 294.958C461.876 293.673 459.11 289.288 456.559 286.841C459.973 287.159 464.316 286.615 464.601 285.061C464.835 283.781 462.251 282.165 459.484 281.125ZM444.523 291.038C443.809 291.135 443.156 291.274 442.659 291.63C442.131 291.106 441.361 290.947 440.504 290.849C439.545 290.739 438.673 290.729 438.008 291.282C437.765 290.606 437.166 290.126 436.47 289.66C435.87 289.259 435.289 288.93 434.682 288.866C434.634 288.124 434.164 287.494 433.587 286.852C433.22 286.443 432.852 286.077 432.444 285.833C433.033 285.116 432.965 284.21 432.783 283.216C432.653 282.507 432.484 281.861 432.106 281.381C432.606 280.83 432.73 280.053 432.789 279.193C432.853 278.253 432.826 277.402 432.284 276.767C433.685 276.945 434.361 276.072 434.99 274.978C435.349 274.353 435.638 273.751 435.66 273.141C436.397 273.043 436.994 272.53 437.595 271.912C438.108 271.383 438.544 270.86 438.708 270.257C439.296 270.752 440.099 270.826 440.984 270.826C441.847 270.826 442.63 270.755 443.214 270.295C443.667 270.704 444.3 270.917 444.999 271.095C445.666 271.264 446.295 271.378 446.867 271.264C447.076 271.741 447.448 272.174 447.872 272.611C448.473 273.23 449.07 273.743 449.807 273.84C449.829 274.451 450.117 275.053 450.476 275.678C450.899 276.414 451.343 277.05 452.014 277.334C451.936 277.761 451.944 278.231 451.978 278.726C452.037 279.587 452.161 280.364 452.66 280.915C452.283 281.395 452.114 282.041 451.984 282.75C451.802 283.744 451.734 284.65 452.323 285.366C451.915 285.611 451.547 285.977 451.18 286.386C450.603 287.027 450.132 287.658 450.085 288.4C449.477 288.463 448.896 288.792 448.297 289.193C447.479 289.741 446.797 290.308 446.666 291.189C446.052 290.891 445.317 290.929 444.523 291.038Z" fill="#F6C485"/>
<path d="M442.617 292.748C449.056 292.748 454.277 287.528 454.277 281.088C454.277 274.648 449.056 269.427 442.617 269.427C436.177 269.427 430.956 274.648 430.956 281.088C430.956 287.528 436.177 292.748 442.617 292.748Z" fill="#3D372A"/>
<path d="M416.173 384L418 395.5C418 402.263 420.687 408.749 425.469 413.531C430.251 418.313 436.737 421 443.5 421C450.263 421 456.749 418.313 461.531 413.531C466.313 408.749 469 402.263 469 395.5L469.013 395.342L470.827 384H416.173Z" fill="#2D2D2D"/>
<path d="M888 419.839H0V421.839H888V419.839Z" fill="#272727"/>
<path d="M92.2342 387.428V393.307C92.2342 393.307 88.3152 423.679 77.5381 423.679C66.761 423.679 75.5786 392.327 75.5786 392.327V387.428L92.2342 387.428Z" fill="#9E616A"/>
<path d="M255.85 276.718L253.891 271.819C253.891 271.819 241.154 253.204 249.972 248.306C258.79 243.407 269.567 267.9 269.567 267.9L271.526 275.738L255.85 276.718Z" fill="#9E616A"/>
<path d="M215.191 270.738C229.474 270.738 241.053 259.16 241.053 244.877C241.053 230.594 229.474 219.015 215.191 219.015C200.908 219.015 189.33 230.594 189.33 244.877C189.33 259.16 200.908 270.738 215.191 270.738Z" fill="#9E616A"/>
<path d="M196.576 247.816L178.942 261.532L203.435 282.106L217.15 265.451L196.576 247.816Z" fill="#9E616A"/>
<path d="M212.67 390.18H122.61L129.44 317.75L134.51 263.96V263.95C134.618 262.796 134.953 261.675 135.496 260.65C136.038 259.626 136.777 258.718 137.671 257.98C138.565 257.241 139.595 256.686 140.703 256.347C141.812 256.007 142.976 255.889 144.13 256L181.5 259.54L209 275.35L209.8 282.6L237.24 302.19L218.59 337.67L206.86 360L212.67 390.18Z" fill="#272727"/>
<path d="M135.343 310.029L109.869 343.34L94.1937 390.368H70.68L87.3355 320.806L131.3 260.692C132.431 259.153 134.029 258.022 135.855 257.466C137.682 256.91 139.639 256.959 141.435 257.606C141.996 257.837 142.582 258.004 143.181 258.103L135.343 310.029Z" fill="#272727"/>
<path d="M215.681 336.482L276.915 361.465L287.691 350.689L272.506 271.819L252.911 275.739L260.749 322.766L237.236 302.192L229.397 300.232L215.681 336.482Z" fill="#272727"/>
<path d="M189.868 253.253C188.628 242.963 189.781 232.526 193.234 222.754C198.972 207.352 217.266 211.994 227.683 215.487C238.101 218.98 251.905 233.59 248.313 241.565C244.722 249.54 227.676 239.465 221.596 234.329C215.516 229.192 204.893 244.792 204.893 244.792L189.868 253.253Z" fill="#272727"/>
<path d="M208.19 243.997C209.144 241.37 208.735 238.811 207.276 238.281C205.817 237.751 203.86 239.45 202.906 242.076C201.951 244.702 202.36 247.261 203.819 247.792C205.278 248.322 207.235 246.623 208.19 243.997Z" fill="#9E616A"/>
</g>
<defs>
<clipPath id="clip0_702_2">
<rect width="888" height="423.679" fill="white"/>
</clipPath>
</defs>
</svg>
