<svg width="100" height="100" viewBox="0 0 100 100" fill="none" xmlns="http://www.w3.org/2000/svg">
<rect width="100" height="100" rx="50" fill="white"/>
<path d="M50.191 71.61C46.1243 71.61 42.749 71.0407 40.065 69.902C37.381 68.7227 35.3477 67.1977 33.965 65.327C32.5823 63.4563 31.8503 61.4637 31.769 59.349C31.769 59.0237 31.891 58.739 32.135 58.495C32.4197 58.2103 32.745 58.068 33.111 58.068H40.797C41.3663 58.068 41.7933 58.1697 42.078 58.373C42.4033 58.5763 42.688 58.8407 42.932 59.166C43.2573 59.776 43.7047 60.3657 44.274 60.935C44.884 61.5043 45.6567 61.972 46.592 62.338C47.568 62.6633 48.7677 62.826 50.191 62.826C52.5497 62.826 54.3187 62.46 55.498 61.728C56.718 60.996 57.328 59.9997 57.328 58.739C57.328 57.8443 57.0027 57.1123 56.352 56.543C55.7013 55.933 54.644 55.4043 53.18 54.957C51.7567 54.469 49.8453 53.981 47.446 53.493C44.3553 52.8423 41.712 52.0087 39.516 50.992C37.3607 49.9347 35.7137 48.5723 34.575 46.905C33.4363 45.197 32.867 43.0823 32.867 40.561C32.867 38.0803 33.5583 35.864 34.941 33.912C36.3643 31.96 38.3367 30.435 40.858 29.337C43.3793 28.239 46.3683 27.69 49.825 27.69C52.631 27.69 55.0913 28.056 57.206 28.788C59.3613 29.52 61.171 30.496 62.635 31.716C64.099 32.936 65.197 34.2373 65.929 35.62C66.7017 36.962 67.1083 38.2837 67.149 39.585C67.149 39.9103 67.027 40.2153 66.783 40.5C66.539 40.744 66.234 40.866 65.868 40.866H57.816C57.3687 40.866 56.9823 40.7847 56.657 40.622C56.3317 40.4593 56.047 40.195 55.803 39.829C55.559 38.9343 54.9083 38.1617 53.851 37.511C52.8343 36.8197 51.4923 36.474 49.825 36.474C48.0357 36.474 46.6327 36.7993 45.616 37.45C44.64 38.06 44.152 39.0157 44.152 40.317C44.152 41.1303 44.4163 41.842 44.945 42.452C45.5143 43.062 46.4293 43.5907 47.69 44.038C48.9913 44.4853 50.7603 44.953 52.997 45.441C56.6977 46.1323 59.6867 47.0067 61.964 48.064C64.2413 49.0807 65.9087 50.4227 66.966 52.09C68.0233 53.7167 68.552 55.7703 68.552 58.251C68.552 61.0163 67.759 63.4157 66.173 65.449C64.6277 67.4417 62.4723 68.9667 59.707 70.024C56.9417 71.0813 53.7697 71.61 50.191 71.61Z" fill="#272727"/>
</svg>
