<svg width="499" height="646" viewBox="0 0 499 646" fill="none" xmlns="http://www.w3.org/2000/svg">
<g clip-path="url(#clip0_349_2)">
<path d="M351.194 242.623L490.226 212.631L492.033 212.242C492.953 212.042 493.911 212.106 494.797 212.427C495.682 212.747 496.459 213.311 497.038 214.053C497.618 214.795 497.976 215.686 498.071 216.623C498.167 217.559 497.996 218.504 497.579 219.348L442.377 331.45C442.02 332.17 441.495 332.794 440.846 333.269C440.197 333.744 439.444 334.056 438.65 334.179C437.853 334.303 437.037 334.231 436.274 333.969C435.512 333.708 434.824 333.264 434.27 332.677L395.929 292.249C395.656 291.954 395.325 291.719 394.957 291.558C394.589 291.398 394.192 291.315 393.79 291.315C393.244 291.307 392.706 291.448 392.234 291.723C391.762 291.997 391.374 292.395 391.11 292.873L383.257 307.399C382.755 308.368 381.945 309.141 380.953 309.595C379.962 310.05 378.847 310.159 377.786 309.907L377.747 309.898C376.673 309.67 375.706 309.088 375.003 308.246C374.3 307.403 373.901 306.348 373.869 305.251L372.296 271.719C372.277 271.3 372.173 270.89 371.989 270.514C371.792 270.142 371.524 269.811 371.201 269.541L349.081 251.383C348.354 250.786 347.81 249.997 347.511 249.105C347.212 248.213 347.17 247.255 347.391 246.341C347.611 245.426 348.085 244.592 348.758 243.935C349.43 243.277 350.274 242.822 351.194 242.623ZM350.344 249.84L372.464 267.997C372.752 268.229 373.013 268.493 373.243 268.784L490.478 215.616C490.581 215.568 490.689 215.53 490.8 215.503C491.252 215.386 491.731 215.431 492.153 215.63C492.575 215.829 492.915 216.17 493.113 216.593C493.311 217.016 493.355 217.494 493.237 217.946C493.12 218.398 492.848 218.795 492.469 219.067L396.076 289.875C396.565 290.129 397.006 290.466 397.381 290.87L435.722 331.298C436.055 331.648 436.467 331.913 436.924 332.07C437.381 332.226 437.869 332.27 438.346 332.198C438.824 332.126 439.277 331.939 439.667 331.654C440.057 331.369 440.373 330.995 440.587 330.562L495.788 218.46C496.035 217.954 496.135 217.388 496.076 216.828C496.017 216.268 495.801 215.735 495.455 215.291C495.108 214.847 494.643 214.509 494.114 214.317C493.584 214.124 493.011 214.084 492.46 214.201L490.61 214.6L351.621 244.581C351.069 244.701 350.562 244.973 350.158 245.367C349.754 245.762 349.469 246.262 349.335 246.811C349.202 247.359 349.226 247.934 349.405 248.47C349.583 249.006 349.909 249.48 350.344 249.84Z" fill="white"/>
<path d="M321.557 642.525C334.028 639.157 349.206 625.147 345.957 605.891C344.345 596.341 338.16 590.159 331.747 586.162C322.876 580.633 312.773 578.549 303.037 578.023C291.807 577.416 280.59 578.946 269.444 580.565C258.44 582.164 247.436 583.595 236.383 584.469C193.134 587.861 149.621 584.63 107.347 574.888C96.9133 572.48 86.5423 569.655 76.2338 566.413C66.4653 563.538 56.9147 559.969 47.6551 555.732C35.3993 549.848 15.4682 538.398 17.0934 517.193C17.9551 505.95 24.5764 496.97 31.2551 490.713C39.3306 483.149 48.6749 478.172 57.8271 473.338C100.398 450.857 143.051 428.642 185.663 406.296C195.608 401.081 205.62 396.005 215.271 389.894C224.308 384.171 233.302 377.525 240.574 368.334C246.926 360.307 252.602 349.531 252.401 337.484C252.235 327.494 247.689 319.017 242.121 312.681C228.336 296.995 208.835 290.634 191.211 287.303C169.314 283.164 147.1 283.185 125.189 279.189C107.497 275.962 88.594 269.732 74.2055 255.133C68.1189 249.195 63.8139 241.674 61.7767 233.418C59.9395 224.771 60.8325 215.768 64.3325 207.65C68.2301 198.341 74.4473 190.924 80.9847 184.852C88.4943 177.973 97.0114 172.283 106.241 167.978C125.674 158.718 146.109 153.897 166.014 146.79C175.776 143.305 185.637 139.483 194.702 133.497C202.382 128.425 210.747 121.589 215.02 111.423C223.836 90.4484 202.805 77.9477 190.888 73.2127C182.788 70.1406 174.445 67.7523 165.947 66.0727C164.15 65.6869 164.913 62.1001 166.701 62.4841C175.647 64.2281 184.414 66.788 192.892 70.1317C200.078 73.1174 207.493 77.0412 213.137 83.7932C215.707 86.8418 217.607 90.3967 218.714 94.2273C219.821 98.0578 220.11 102.078 219.563 106.028C218.068 116.092 211.569 123.846 205.465 129.463C197.393 136.891 188.19 141.741 178.859 145.695C169.032 149.86 158.996 153.105 148.964 156.289C128.917 162.65 107.971 168.319 89.8743 181.855C77.215 191.324 60.0176 209.078 64.2286 231.084C66.0978 240.852 71.7743 248.49 77.9 254.108C85.0936 260.51 93.3893 265.554 102.384 268.995C142.487 285.134 186.622 273.592 225.691 295.513C238.975 302.966 255.11 316.535 255.24 337.886C255.307 348.977 250.862 359.15 245.365 367.19C238.782 376.82 230.257 383.941 221.584 389.893C212.451 395.931 202.968 401.421 193.185 406.335C182.498 411.949 171.808 417.555 161.116 423.153L96.2324 457.179L63.9944 474.085C54.1553 479.244 44.0635 484.194 35.1175 491.768C27.7926 497.97 19.1385 508.144 19.8859 520.778C20.4794 530.811 27.1446 538.052 33.2352 542.892C41.1218 549.161 49.9812 553.215 58.796 556.584C68.9633 560.47 79.2978 563.694 89.6523 566.592C110.862 572.52 132.509 576.757 154.389 579.263C176.215 581.776 198.202 582.596 220.154 581.714C231.246 581.268 242.32 580.381 253.377 579.053C264.775 577.68 276.124 575.565 287.551 574.627C297.887 573.778 308.322 573.975 318.501 576.703C327 578.98 335.979 583.04 342.431 590.962C347.186 597.009 349.567 604.586 349.126 612.266C348.689 619.931 345.957 627.287 341.283 633.378C336.536 639.599 329.866 644.076 322.311 646.114C320.529 646.595 319.768 643.009 321.557 642.525Z" fill="#E6E6E6"/>
<path d="M-0.00012207 644.224H324.032V646.465H-0.00012207V644.224Z" fill="#3F3D56"/>
<path d="M25.9616 538.671C14.2708 538.671 4.79349 529.193 4.79349 517.502C4.79349 505.812 14.2708 496.334 25.9616 496.334C37.6524 496.334 47.1296 505.812 47.1296 517.502C47.1296 529.193 37.6524 538.671 25.9616 538.671Z" fill="#E6E6E6"/>
<path d="M64.5804 240.316C52.8896 240.316 43.4123 230.839 43.4123 219.148C43.4123 207.458 52.8896 197.98 64.5804 197.98C76.2713 197.98 85.7485 207.458 85.7485 219.148C85.7485 230.839 76.2713 240.316 64.5804 240.316Z" fill="#E6E6E6"/>
<path d="M112.44 0.885498L171.217 26.4372C173.813 27.5692 175.853 29.6847 176.892 32.3196C177.93 34.9544 177.88 37.8935 176.754 40.492L158.503 82.4755C157.371 85.0714 155.255 87.1123 152.621 88.1505C149.986 89.1886 147.047 89.1392 144.448 88.013L85.6712 62.4613C83.0753 61.3293 81.0343 59.2138 79.9962 56.5789C78.958 53.9441 79.0075 51.005 80.1336 48.4065L98.3848 6.42304C99.5168 3.8271 101.632 1.78618 104.267 0.748055C106.902 -0.290075 109.841 -0.240644 112.44 0.885498ZM110.006 6.48329C109.655 6.33213 109.285 6.22584 108.907 6.16693L128.779 43.6592L169.594 32.49C169.34 32.3113 169.068 32.1588 168.783 32.035L110.006 6.48329ZM88.1047 56.8635L146.882 82.4152C147.995 82.8978 149.255 82.919 150.384 82.4741C151.513 82.0292 152.42 81.1545 152.905 80.042L170.992 38.4355L128.033 50.1919C127.364 50.3749 126.652 50.3246 126.016 50.0493C125.379 49.774 124.855 49.2901 124.531 48.6774L103.731 9.43471L85.7314 50.84C85.2488 51.9536 85.2276 53.2132 85.6725 54.3425C86.1175 55.4717 86.9921 56.3783 88.1047 56.8635Z" fill="#E6E6E6"/>
<path d="M351.194 242.623L490.226 212.631L492.033 212.242C492.953 212.042 493.911 212.106 494.797 212.427C495.682 212.747 496.459 213.311 497.038 214.053C497.618 214.795 497.976 215.686 498.071 216.623C498.167 217.559 497.996 218.504 497.579 219.348L442.377 331.45C442.02 332.17 441.495 332.794 440.846 333.269C440.197 333.744 439.444 334.056 438.65 334.179C437.853 334.303 437.037 334.231 436.274 333.969C435.512 333.708 434.824 333.264 434.27 332.677L395.929 292.249C395.656 291.954 395.325 291.719 394.957 291.558C394.589 291.398 394.192 291.315 393.79 291.315C393.244 291.307 392.706 291.448 392.234 291.723C391.762 291.997 391.374 292.395 391.11 292.873L383.257 307.399C382.755 308.368 381.945 309.141 380.953 309.595C379.962 310.05 378.847 310.159 377.786 309.907L377.747 309.898C376.673 309.67 375.706 309.088 375.003 308.246C374.3 307.403 373.901 306.348 373.869 305.251L372.296 271.719C372.277 271.3 372.173 270.89 371.989 270.514C371.792 270.142 371.524 269.811 371.201 269.541L349.081 251.383C348.354 250.786 347.81 249.997 347.511 249.105C347.212 248.213 347.17 247.255 347.391 246.341C347.611 245.426 348.085 244.592 348.758 243.935C349.43 243.277 350.274 242.822 351.194 242.623ZM350.344 249.84L372.464 267.997C372.752 268.229 373.013 268.493 373.243 268.784C373.449 269.042 373.628 269.322 373.775 269.619C373.929 269.922 374.051 270.241 374.138 270.569L374.136 270.579C374.227 270.922 374.28 271.274 374.293 271.628L375.866 305.16C375.879 305.819 376.116 306.454 376.538 306.961C376.961 307.467 377.543 307.815 378.189 307.947L378.208 307.952C378.845 308.11 379.516 308.048 380.114 307.777C380.711 307.506 381.199 307.041 381.499 306.457L389.355 291.921C389.759 291.174 390.348 290.542 391.066 290.086C391.783 289.63 392.606 289.364 393.454 289.315L393.464 289.317C393.578 289.312 393.692 289.306 393.803 289.311C394.595 289.311 395.375 289.505 396.075 289.875C396.565 290.129 397.006 290.466 397.381 290.87L435.722 331.298C436.055 331.648 436.467 331.913 436.924 332.07C437.381 332.226 437.869 332.27 438.346 332.198C438.824 332.126 439.277 331.939 439.667 331.654C440.057 331.369 440.372 330.995 440.587 330.562L495.788 218.46C496.035 217.954 496.135 217.388 496.076 216.828C496.017 216.268 495.801 215.735 495.455 215.291C495.108 214.847 494.643 214.509 494.114 214.317C493.584 214.124 493.011 214.084 492.46 214.201L490.61 214.6L351.621 244.581C351.069 244.701 350.562 244.973 350.158 245.367C349.754 245.762 349.469 246.262 349.335 246.811C349.202 247.359 349.226 247.934 349.405 248.47C349.583 249.006 349.909 249.48 350.344 249.84Z" fill="white"/>
<path d="M372.799 268.983L373.625 270.804L374.136 270.579L374.138 270.569L491.28 217.452L393.464 289.317L393.454 289.315L393.195 289.514L394.375 291.127L396.076 289.875L492.469 219.067C492.848 218.795 493.12 218.398 493.238 217.946C493.355 217.494 493.311 217.015 493.113 216.593C492.915 216.17 492.576 215.829 492.153 215.63C491.731 215.431 491.252 215.386 490.8 215.503C490.689 215.53 490.581 215.567 490.478 215.616L373.243 268.784L372.799 268.983Z" fill="#3F3D56"/>
</g>
<defs>
<clipPath id="clip0_349_2">
<rect width="498.099" height="646.465" fill="white" transform="matrix(-1 0 0 1 498.099 0)"/>
</clipPath>
</defs>
</svg>
