<svg width="95" height="67" viewBox="0 0 95 67" fill="none" xmlns="http://www.w3.org/2000/svg">
<g clip-path="url(#clip0_344_30)">
<path d="M86 67H9C6.61389 66.9973 4.32627 66.0482 2.63904 64.3609C0.951802 62.6737 0.00272874 60.3861 0 58V9C0.00272874 6.61389 0.951802 4.32629 2.63904 2.63905C4.32627 0.951817 6.61389 0.00272874 9 0H86C88.3861 0.00273138 90.6737 0.951818 92.361 2.63905C94.0482 4.32629 94.9973 6.61389 95 9V58C94.9973 60.3861 94.0482 62.6737 92.361 64.3609C90.6737 66.0482 88.3861 66.9973 86 67ZM9 2C7.14412 2.00208 5.36486 2.74025 4.05255 4.05255C2.74025 5.36486 2.00208 7.14412 2 9V58C2.00208 59.8559 2.74025 61.6352 4.05255 62.9475C5.36486 64.2598 7.14412 64.9979 9 65H86C87.8559 64.9979 89.6351 64.2598 90.9474 62.9475C92.2598 61.6352 92.9979 59.8559 93 58V9C92.9979 7.14412 92.2598 5.36485 90.9474 4.05255C89.6351 2.74025 87.8559 2.00208 86 2H9Z" fill="white"/>
<path d="M47.0874 33.0571C45.0297 33.061 43.0205 32.4326 41.3318 31.2569L2.6947 4.24365L3.8407 2.60498L42.4778 29.6182C43.8137 30.5443 45.3976 31.0464 47.0231 31.0591C48.6485 31.0719 50.2401 30.5946 51.5903 29.6895L91.3649 2.79883L92.485 4.45607L52.7104 31.3467C51.0487 32.465 49.0904 33.0607 47.0874 33.0571Z" fill="white"/>
</g>
<defs>
<clipPath id="clip0_344_30">
<rect width="95" height="67" fill="white"/>
</clipPath>
</defs>
</svg>
