<svg width="100" height="101" viewBox="0 0 100 101" fill="none" xmlns="http://www.w3.org/2000/svg">
<g clip-path="url(#clip0_346_2)">
<path d="M26.8075 39.4076C25.9417 38.7593 25.0735 38.4352 24.2076 38.4352H20.3155V61.7884H24.2098C25.0757 61.7884 25.9439 61.4639 26.8098 60.8158C27.6757 60.1678 28.1086 59.1952 28.1086 57.8965V42.327C28.1064 41.0305 27.6712 40.0558 26.8075 39.4076ZM90.1841 0H9.79729C4.39652 0 0.0133883 4.37912 0 9.79097V90.3541C0.0133883 95.7661 4.39652 100.145 9.79729 100.145H90.1841C95.5873 100.145 99.9682 95.7661 99.9815 90.3541V9.79097C99.9682 4.37912 95.5851 0 90.1841 0ZM34.4133 57.9388C34.4133 62.1435 31.8223 68.5146 23.6206 68.5013H13.2654V31.5144H23.8393C31.7486 31.5144 34.4088 37.8763 34.4111 42.0833L34.4133 57.9388ZM56.8822 38.12H44.9917V46.7084H52.2605V53.3186H44.9917V61.9045H56.8848V68.5146H43.0076C40.5169 68.5794 38.446 66.6075 38.3835 64.1132V36.1461C38.3233 33.6537 40.2937 31.5837 42.7823 31.5211H56.8848L56.8822 38.12ZM80.0119 63.8918C77.0663 70.7656 71.7881 69.3974 69.4245 63.8918L60.8259 31.5234H68.0947L74.7251 56.9442L81.3241 31.5234H88.5954L80.0119 63.8918Z" fill="white"/>
</g>
<defs>
<clipPath id="clip0_346_2">
<rect width="100" height="100.145" fill="white"/>
</clipPath>
</defs>
</svg>
