<svg width="100" height="69" viewBox="0 0 100 69" fill="none" xmlns="http://www.w3.org/2000/svg">
<g clip-path="url(#clip0_346_10)">
<path fill-rule="evenodd" clip-rule="evenodd" d="M88.3994 2.1106C92.6478 3.24708 95.9975 6.57534 97.1413 10.7966C99.2656 18.5084 99.1838 34.5814 99.1838 34.5814C99.1838 34.5814 99.1838 50.5734 97.1413 58.2851C95.9975 62.5064 92.6478 65.8347 88.3994 66.9711C80.6379 69.0005 49.5919 69.0005 49.5919 69.0005C49.5919 69.0005 18.6276 69.0005 10.7844 66.89C6.536 65.7534 3.18631 62.4253 2.0425 58.204C0 50.5734 0 34.5003 0 34.5003C0 34.5003 0 18.5084 2.0425 10.7966C3.18631 6.57534 6.61769 3.16591 10.7844 2.02943C18.5458 0 49.5919 0 49.5919 0C49.5919 0 80.6379 0 88.3994 2.1106ZM39.7063 19.726L65.5235 34.5003L39.7063 49.2744V19.726Z" fill="white"/>
</g>
<defs>
<clipPath id="clip0_346_10">
<rect width="100" height="69" fill="white"/>
</clipPath>
</defs>
</svg>
