<svg width="712" height="676" viewBox="0 0 712 676" fill="none" xmlns="http://www.w3.org/2000/svg">
<g clip-path="url(#clip0_513_75)">
<path d="M516.326 386.018V571.013L547.27 621.443L549.625 625.279H671.722L674.189 386.018H516.326Z" fill="#E6E6E6"/>
<path opacity="0.1" d="M516.326 386.018V571.013L547.27 621.443L549.169 386.018H516.326Z" fill="black"/>
<path d="M221.566 381.084V566.08L190.622 616.51L188.267 620.345H66.17L63.703 381.084H221.566Z" fill="#E6E6E6"/>
<path opacity="0.1" d="M221.566 381.084V566.08L190.622 616.51L188.723 381.084H221.566Z" fill="black"/>
<path d="M711.188 377.385V388.484H47.67V372.451L109.335 340.385H656.923L711.188 377.385Z" fill="#E6E6E6"/>
<path opacity="0.1" d="M711.188 377.385V388.484H47.67V372.451L711.188 377.385Z" fill="black"/>
<path d="M142.635 432.883H113.035L100.702 424.25H156.201L142.635 432.883Z" fill="#272727"/>
<path d="M142.635 468.649H113.035L100.702 460.016H156.201L142.635 468.649Z" fill="#272727"/>
<path d="M142.635 519.215H113.035L100.702 510.581H156.201L142.635 519.215Z" fill="#272727"/>
<path d="M142.635 569.78H113.035L100.702 561.147H156.201L142.635 569.78Z" fill="#272727"/>
<path d="M595.257 437.816H624.857L637.19 429.183H581.691L595.257 437.816Z" fill="#272727"/>
<path d="M595.257 473.582H624.857L637.19 464.949H581.691L595.257 473.582Z" fill="#272727"/>
<path d="M595.257 524.148H624.857L637.19 515.515H581.691L595.257 524.148Z" fill="#272727"/>
<path d="M595.257 574.713H624.857L637.19 566.08H581.691L595.257 574.713Z" fill="#272727"/>
<path d="M615.414 126.456H366.228C364.991 126.456 363.765 126.7 362.622 127.173C361.478 127.647 360.439 128.341 359.564 129.216C358.689 130.091 357.995 131.13 357.522 132.274C357.048 133.417 356.804 134.643 356.805 135.88V303.738C356.804 304.975 357.048 306.201 357.522 307.344C357.995 308.488 358.689 309.527 359.564 310.402C360.439 311.277 361.478 311.971 362.622 312.445C363.765 312.918 364.991 313.162 366.228 313.162H460.821L457.277 335.788C457.277 335.788 437.025 346.547 451.265 346.864C465.505 347.18 532.593 346.864 532.593 346.864C532.593 346.864 545.567 346.864 524.998 335.472L521.664 313.162H615.414C616.651 313.162 617.877 312.918 619.02 312.445C620.164 311.971 621.203 311.277 622.078 310.402C622.953 309.527 623.647 308.488 624.121 307.344C624.594 306.201 624.838 304.975 624.838 303.738V135.88C624.838 134.643 624.594 133.417 624.121 132.274C623.647 131.13 622.953 130.091 622.078 129.216C621.203 128.341 620.164 127.647 619.02 127.173C617.877 126.7 616.651 126.456 615.414 126.456Z" fill="#272727"/>
<path d="M615.819 136.424H365.823V276.295H615.819V136.424Z" fill="#FAFAFA"/>
<path d="M490.821 133.576C491.695 133.576 492.403 132.868 492.403 131.994C492.403 131.12 491.695 130.412 490.821 130.412C489.947 130.412 489.239 131.12 489.239 131.994C489.239 132.868 489.947 133.576 490.821 133.576Z" fill="#F2F2F2"/>
<path d="M490.821 306.358C494.142 306.358 496.834 303.666 496.834 300.346C496.834 297.025 494.142 294.333 490.821 294.333C487.5 294.333 484.809 297.025 484.809 300.346C484.809 303.666 487.5 306.358 490.821 306.358Z" fill="#FAFAFA"/>
<path d="M481.452 363.952V367.117H311.202V364.585L311.436 363.952L315.632 352.56H477.971L481.452 363.952Z" fill="#272727"/>
<path d="M546.97 360.854C546.659 362.18 545.489 363.579 542.843 364.901C533.35 369.648 514.046 363.636 514.046 363.636C514.046 363.636 499.173 361.104 499.173 354.459C499.59 354.173 500.026 353.914 500.477 353.683C504.468 351.572 517.702 346.361 541.167 353.904C542.896 354.447 544.44 355.458 545.628 356.827C546.154 357.344 546.55 357.979 546.783 358.679C547.016 359.379 547.08 360.124 546.97 360.854Z" fill="#272727"/>
<path opacity="0.1" d="M546.97 360.854C535.35 365.306 524.992 365.639 514.362 358.256C510.343 355.284 505.476 353.681 500.477 353.683C504.468 351.572 517.702 346.361 541.167 353.904C542.896 354.447 544.44 355.458 545.628 356.827C546.154 357.344 546.55 357.979 546.783 358.679C547.016 359.379 547.08 360.124 546.97 360.854Z" fill="black"/>
<path d="M532.4 358.256C534.672 358.256 536.514 357.689 536.514 356.99C536.514 356.291 534.672 355.724 532.4 355.724C530.128 355.724 528.286 356.291 528.286 356.99C528.286 357.689 530.128 358.256 532.4 358.256Z" fill="#F2F2F2"/>
<path opacity="0.1" d="M481.452 363.952V367.117H311.202V364.585L311.436 363.952H481.452Z" fill="black"/>
<path d="M82.1377 80.9052C82.1377 80.9052 85.5911 109.684 72.9286 111.986C60.2661 114.288 84.44 153.427 84.44 153.427L141.997 160.334L128.183 114.288C128.183 114.288 118.974 110.835 124.73 87.812C130.485 64.7893 82.1377 80.9052 82.1377 80.9052Z" fill="#F7C8AC"/>
<path d="M47.028 575.318L51.633 638.631H75.806L68.9 575.318H47.028Z" fill="#F7C8AC"/>
<path d="M224.303 455.6L227.756 508.552L254.233 497.041L243.872 453.298L224.303 455.6Z" fill="#F7C8AC"/>
<path d="M29.761 333.58C29.761 333.58 30.9121 400.345 37.819 422.217C44.7259 444.089 43.5747 445.24 42.4235 448.693C41.2724 452.147 40.1213 449.844 40.1213 455.6C40.1213 461.356 37.819 552.295 40.1213 560.353C42.4235 568.411 33.2145 582.225 40.1213 583.376C47.0281 584.527 79.2599 583.376 80.411 576.469C81.5622 569.563 71.202 567.26 75.8065 562.656C80.4111 558.051 87.3179 463.658 87.3179 463.658L103.434 398.043L133.363 363.509H196.676L216.245 439.484C216.245 439.484 208.187 461.356 213.943 461.356C219.699 461.356 254.233 468.263 254.233 442.938C254.233 417.613 242.721 342.789 240.419 340.486C238.117 338.184 241.57 330.126 238.117 326.673C234.663 323.219 194.374 299.046 179.409 294.441C164.444 289.836 143.451 284.356 143.451 284.356L29.761 333.58Z" fill="#272727"/>
<path d="M254.233 487.832C254.233 487.832 236.966 482.076 228.908 499.343C220.85 516.61 224.303 521.215 224.303 521.215C224.303 521.215 250.779 530.424 255.384 525.819C257.387 523.816 263.748 523.12 270.296 522.973C280.269 522.749 282.923 508.64 273.504 505.354C273.223 505.256 272.939 505.171 272.651 505.099C263.442 502.797 254.233 487.832 254.233 487.832Z" fill="#272727"/>
<path d="M63.1439 126.375C63.1439 126.375 119.55 137.886 133.363 119.468C147.177 101.05 152.933 171.269 152.933 171.269L159.839 244.942L149.479 285.232C149.479 285.232 95.3758 328.975 78.1087 332.428C60.8417 335.882 34.3655 338.184 34.3655 338.184C34.3655 338.184 42.4235 210.408 42.4235 208.106C42.4235 205.803 63.1439 126.375 63.1439 126.375Z" fill="black"/>
<path d="M80.2983 104.786C80.2983 104.786 67.7485 97.5967 64.2951 104.504C60.8417 111.41 28.6099 128.677 25.1564 128.677C21.703 128.677 32.0633 224.222 27.4587 235.733C22.8542 247.244 0.982606 331.277 13.6451 338.184C26.3076 345.091 17.0985 331.277 29.761 348.544C42.4235 365.811 104.585 365.811 108.038 358.905C111.492 351.998 80.411 300.197 86.1667 251.849C91.9224 203.501 101.131 136.735 93.0735 127.526C85.0156 118.317 80.2983 104.786 80.2983 104.786Z" fill="#272727"/>
<path d="M121.852 112.561L123.455 107.043C123.455 107.043 171.351 122.922 173.653 133.282C175.955 143.642 174.804 216.164 166.746 221.919C158.688 227.675 147.177 236.884 155.235 250.698C163.293 264.511 172.502 279.476 179.409 280.627C186.316 281.778 198.978 289.836 195.525 297.894C192.071 305.952 150.63 290.988 150.63 290.988C150.63 290.988 123.003 270.267 124.154 238.035C125.305 205.803 121.852 112.561 121.852 112.561Z" fill="#272727"/>
<path d="M162.142 248.396L134.514 300.197C134.514 300.197 94.2246 341.638 117.247 346.242C140.27 350.847 152.933 308.255 152.933 308.255L182.862 265.663L162.142 248.396Z" fill="#F7C8AC"/>
<path d="M162.142 128.677L172.867 131.524C172.867 131.524 197.827 195.443 192.071 239.186C186.316 282.93 182.862 273.721 182.862 273.721C182.862 273.721 173.653 253 152.933 257.605L162.142 128.677Z" fill="#272727"/>
<path d="M48.6229 630.263C45.847 634.036 46.4035 639.428 43.9446 643.414C41.8132 646.869 37.7962 648.681 35.1302 651.743C34.2795 652.76 33.5212 653.851 32.8641 655.003C30.391 659.145 28.3808 664.454 30.8165 668.619C32.7758 671.969 36.8943 673.279 40.6714 674.171C45.4455 675.299 50.4058 676.202 55.235 675.34C60.0642 674.478 64.7838 671.521 66.5057 666.927C66.8441 665.772 67.2464 664.637 67.7107 663.527C70.3282 658.374 78.5382 658.318 81.217 653.197C83.0917 649.613 81.3684 645.28 79.6459 641.621L74.3848 630.444C72.6388 626.735 65.5611 628.868 61.8714 627.979C57.0591 626.82 52.0848 625.543 48.6229 630.263Z" fill="#272727"/>
<path d="M10.1917 271.418L58.5394 346.242C58.5394 346.242 88.4689 384.23 97.678 366.963C106.887 349.696 65.4462 320.917 65.4462 320.917L34.3655 263.36L10.1917 271.418Z" fill="#F7C8AC"/>
<path d="M34.3655 130.98L25.1564 128.677C25.1564 128.677 6.73826 134.433 2.13372 158.607C-2.47081 182.781 0.982582 279.476 6.73826 280.627C12.4939 281.778 35.1655 263.791 38.7945 267.604C42.4235 271.418 30.9121 251.849 34.3655 241.489C37.8189 231.128 34.3655 130.98 34.3655 130.98Z" fill="#272727"/>
<path d="M467.159 182.363H437.407V189.525H467.159V182.363Z" fill="black"/>
<path d="M570.191 182.363H559.722V189.525H570.191V182.363Z" fill="black"/>
<path d="M591.127 182.363H580.659V189.525H591.127V182.363Z" fill="black"/>
<path d="M548.703 182.363H477.628V189.525H548.703V182.363Z" fill="black"/>
<path d="M429.693 228.644H399.941V235.807H429.693V228.644Z" fill="black"/>
<path d="M532.725 228.644H522.256V235.807H532.725V228.644Z" fill="black"/>
<path d="M553.661 228.644H543.193V235.807H553.661V228.644Z" fill="black"/>
<path d="M511.237 228.644H440.162V235.807H511.237V228.644Z" fill="black"/>
<path d="M552.56 198.341H522.807V205.503H552.56V198.341Z" fill="black"/>
<path d="M592.78 198.341H563.028V205.503H592.78V198.341Z" fill="black"/>
<path d="M410.409 198.341H399.941V205.503H410.409V198.341Z" fill="black"/>
<path d="M431.346 198.341H420.878V205.503H431.346V198.341Z" fill="black"/>
<path d="M512.89 198.341H441.815V205.503H512.89V198.341Z" fill="black"/>
<path d="M490.851 213.768H461.099V220.931H490.851V213.768Z" fill="black"/>
<path d="M450.63 213.768H420.878V220.931H450.63V213.768Z" fill="black"/>
<path d="M410.409 213.768H399.941V220.931H410.409V213.768Z" fill="black"/>
<path d="M592.78 213.768H582.312V220.931H592.78V213.768Z" fill="black"/>
<path d="M571.843 213.768H500.768V220.931H571.843V213.768Z" fill="black"/>
<path d="M103 107C122.073 107 137.119 84.5 140.572 67.3649C148 30.5 133.073 15 114 15C94.9276 15 79.5 15.6351 75.5 63C75.5 80.1351 83.9276 107 103 107Z" fill="#F7C8AC"/>
<path d="M79.5 13C62.5 21.5 74.0001 58 76.0001 68C80 57 84 41 84 41C120.5 43.5 134.5 28.5 134.5 28.5C141 34 140.5 66 140.5 66C141.5 64.5 159 32 141 17C132.2 -0.999975 109.5 -1.49999 91.5 3.00001C79 8 84.5312 10.4844 79.5 13Z" fill="black" stroke="black"/>
</g>
<defs>
<clipPath id="clip0_513_75">
<rect width="712" height="676" fill="white"/>
</clipPath>
</defs>
</svg>
