<svg width="712" height="670" viewBox="0 0 712 670" fill="none" xmlns="http://www.w3.org/2000/svg">
<g clip-path="url(#clip0_513_75)">
<mask id="mask0_513_75" style="mask-type:luminance" maskUnits="userSpaceOnUse" x="0" y="0" width="712" height="670">
<path d="M711.188 0H0V669.683H711.188V0Z" fill="white"/>
</mask>
<g mask="url(#mask0_513_75)">
<path d="M516.326 380.018V565.013L547.27 615.443L549.625 619.279H671.722L674.189 380.018H516.326Z" fill="#E6E6E6"/>
<path opacity="0.1" d="M516.326 380.018V565.013L547.27 615.443L549.169 380.018H516.326Z" fill="black"/>
<path d="M221.566 375.084V560.08L190.622 610.51L188.267 614.345H66.17L63.703 375.084H221.566Z" fill="#E6E6E6"/>
<path opacity="0.1" d="M221.566 375.084V560.08L190.622 610.51L188.723 375.084H221.566Z" fill="black"/>
<path d="M711.188 371.385V382.484H47.67V366.451L109.335 334.385H656.923L711.188 371.385Z" fill="#E6E6E6"/>
<path opacity="0.1" d="M711.188 371.385V382.484H47.67V366.451L711.188 371.385Z" fill="black"/>
<path d="M142.635 426.883H113.035L100.702 418.25H156.201L142.635 426.883Z" fill="#272727"/>
<path d="M142.635 462.649H113.035L100.702 454.016H156.201L142.635 462.649Z" fill="#272727"/>
<path d="M142.635 513.215H113.035L100.702 504.581H156.201L142.635 513.215Z" fill="#272727"/>
<path d="M142.635 563.78H113.035L100.702 555.147H156.201L142.635 563.78Z" fill="#272727"/>
<path d="M595.257 431.816H624.857L637.19 423.183H581.691L595.257 431.816Z" fill="#272727"/>
<path d="M595.257 467.582H624.857L637.19 458.949H581.691L595.257 467.582Z" fill="#272727"/>
<path d="M595.257 518.148H624.857L637.19 509.515H581.691L595.257 518.148Z" fill="#272727"/>
<path d="M595.257 568.713H624.857L637.19 560.08H581.691L595.257 568.713Z" fill="#272727"/>
<path d="M615.414 120.456H366.228C364.991 120.456 363.765 120.7 362.622 121.173C361.478 121.647 360.439 122.341 359.564 123.216C358.689 124.091 357.995 125.13 357.522 126.274C357.048 127.417 356.804 128.643 356.805 129.88V297.738C356.804 298.975 357.048 300.201 357.522 301.344C357.995 302.488 358.689 303.527 359.564 304.402C360.439 305.277 361.478 305.971 362.622 306.445C363.765 306.918 364.991 307.162 366.228 307.162H460.821L457.277 329.788C457.277 329.788 437.025 340.547 451.265 340.864C465.505 341.18 532.593 340.864 532.593 340.864C532.593 340.864 545.567 340.864 524.998 329.472L521.664 307.162H615.414C616.651 307.162 617.877 306.918 619.02 306.445C620.164 305.971 621.203 305.277 622.078 304.402C622.953 303.527 623.647 302.488 624.121 301.344C624.594 300.201 624.838 298.975 624.838 297.738V129.88C624.838 128.643 624.594 127.417 624.121 126.274C623.647 125.13 622.953 124.091 622.078 123.216C621.203 122.341 620.164 121.647 619.02 121.173C617.877 120.7 616.651 120.456 615.414 120.456Z" fill="#272727"/>
<path d="M615.819 130.424H365.823V270.295H615.819V130.424Z" fill="#FAFAFA"/>
<path d="M490.821 127.576C491.695 127.576 492.403 126.868 492.403 125.994C492.403 125.12 491.695 124.412 490.821 124.412C489.947 124.412 489.239 125.12 489.239 125.994C489.239 126.868 489.947 127.576 490.821 127.576Z" fill="#F2F2F2"/>
<path d="M490.821 300.358C494.142 300.358 496.834 297.666 496.834 294.346C496.834 291.025 494.142 288.333 490.821 288.333C487.5 288.333 484.809 291.025 484.809 294.346C484.809 297.666 487.5 300.358 490.821 300.358Z" fill="#FAFAFA"/>
<path d="M481.452 357.952V361.117H311.202V358.585L311.436 357.952L315.632 346.56H477.971L481.452 357.952Z" fill="#272727"/>
<path d="M546.97 354.854C546.659 356.18 545.489 357.579 542.843 358.901C533.35 363.648 514.046 357.636 514.046 357.636C514.046 357.636 499.173 355.104 499.173 348.459C499.59 348.173 500.026 347.914 500.477 347.683C504.468 345.572 517.702 340.361 541.167 347.904C542.896 348.447 544.44 349.458 545.628 350.827C546.154 351.344 546.55 351.979 546.783 352.679C547.016 353.379 547.08 354.124 546.97 354.854Z" fill="#272727"/>
<path opacity="0.1" d="M546.97 354.854C535.35 359.306 524.992 359.639 514.362 352.256C510.343 349.284 505.476 347.681 500.477 347.683C504.468 345.572 517.702 340.361 541.167 347.904C542.896 348.447 544.44 349.458 545.628 350.827C546.154 351.344 546.55 351.979 546.783 352.679C547.016 353.379 547.08 354.124 546.97 354.854Z" fill="black"/>
<path d="M532.4 352.256C534.672 352.256 536.514 351.689 536.514 350.99C536.514 350.291 534.672 349.724 532.4 349.724C530.128 349.724 528.286 350.291 528.286 350.99C528.286 351.689 530.128 352.256 532.4 352.256Z" fill="#F2F2F2"/>
<path opacity="0.1" d="M481.452 357.952V361.117H311.202V358.585L311.436 357.952H481.452Z" fill="black"/>
<path d="M82.1377 74.9052C82.1377 74.9052 85.5911 103.684 72.9286 105.986C60.2661 108.288 84.44 147.427 84.44 147.427L141.997 154.334L128.183 108.288C128.183 108.288 118.974 104.835 124.73 81.812C130.485 58.7893 82.1377 74.9052 82.1377 74.9052Z" fill="#F7C8AC"/>
<path d="M47.028 569.318L51.633 632.631H75.806L68.9 569.318H47.028Z" fill="#F7C8AC"/>
<path d="M224.303 449.6L227.756 502.552L254.233 491.041L243.872 447.298L224.303 449.6Z" fill="#F7C8AC"/>
<path d="M29.761 327.58C29.761 327.58 30.9121 394.345 37.819 416.217C44.7259 438.089 43.5747 439.24 42.4235 442.693C41.2724 446.147 40.1213 443.844 40.1213 449.6C40.1213 455.356 37.819 546.295 40.1213 554.353C42.4235 562.411 33.2145 576.225 40.1213 577.376C47.0281 578.527 79.2599 577.376 80.411 570.469C81.5622 563.563 71.202 561.26 75.8065 556.656C80.4111 552.051 87.3179 457.658 87.3179 457.658L103.434 392.043L133.363 357.509H196.676L216.245 433.484C216.245 433.484 208.187 455.356 213.943 455.356C219.699 455.356 254.233 462.263 254.233 436.938C254.233 411.613 242.721 336.789 240.419 334.486C238.117 332.184 241.57 324.126 238.117 320.673C234.663 317.219 194.374 293.046 179.409 288.441C164.444 283.836 143.451 278.356 143.451 278.356L29.761 327.58Z" fill="#272727"/>
<path d="M254.233 481.832C254.233 481.832 236.966 476.076 228.908 493.343C220.85 510.61 224.303 515.215 224.303 515.215C224.303 515.215 250.779 524.424 255.384 519.819C257.387 517.816 263.748 517.12 270.296 516.973C280.269 516.749 282.923 502.64 273.504 499.354C273.223 499.256 272.939 499.171 272.651 499.099C263.442 496.797 254.233 481.832 254.233 481.832Z" fill="#272727"/>
<path d="M108.038 93.899C127.111 93.899 142.572 78.4375 142.572 59.3649C142.572 40.2922 127.111 24.8308 108.038 24.8308C88.9656 24.8308 73.5042 40.2922 73.5042 59.3649C73.5042 78.4375 88.9656 93.899 108.038 93.899Z" fill="#F7C8AC"/>
<path d="M63.1439 120.375C63.1439 120.375 119.55 131.886 133.363 113.468C147.177 95.0501 152.933 165.269 152.933 165.269L159.839 238.942L149.479 279.232C149.479 279.232 95.3758 322.975 78.1087 326.428C60.8417 329.882 34.3655 332.184 34.3655 332.184C34.3655 332.184 42.4235 204.408 42.4235 202.106C42.4235 199.803 63.1439 120.375 63.1439 120.375Z" fill="black"/>
<path d="M80.2983 98.7859C80.2983 98.7859 67.7485 91.5967 64.2951 98.5035C60.8417 105.41 28.6099 122.677 25.1564 122.677C21.703 122.677 32.0633 218.222 27.4587 229.733C22.8542 241.244 0.982606 325.277 13.6451 332.184C26.3076 339.091 17.0985 325.277 29.761 342.544C42.4235 359.811 104.585 359.811 108.038 352.905C111.492 345.998 80.411 294.197 86.1667 245.849C91.9224 197.501 101.131 130.735 93.0735 121.526C85.0156 112.317 80.2983 98.7859 80.2983 98.7859Z" fill="#272727"/>
<path d="M121.852 106.561L123.455 101.043C123.455 101.043 171.351 116.922 173.653 127.282C175.955 137.642 174.804 210.164 166.746 215.919C158.688 221.675 147.177 230.884 155.235 244.698C163.293 258.511 172.502 273.476 179.409 274.627C186.316 275.778 198.978 283.836 195.525 291.894C192.071 299.952 150.63 284.988 150.63 284.988C150.63 284.988 123.003 264.267 124.154 232.035C125.305 199.803 121.852 106.561 121.852 106.561Z" fill="#272727"/>
<path d="M162.142 242.396L134.514 294.197C134.514 294.197 94.2246 335.638 117.247 340.242C140.27 344.847 152.933 302.255 152.933 302.255L182.862 259.663L162.142 242.396Z" fill="#F7C8AC"/>
<path d="M162.142 122.677L172.867 125.524C172.867 125.524 197.827 189.443 192.071 233.186C186.316 276.93 182.862 267.721 182.862 267.721C182.862 267.721 173.653 247 152.933 251.605L162.142 122.677Z" fill="#272727"/>
<path d="M48.6229 624.263C45.847 628.036 46.4035 633.428 43.9446 637.414C41.8132 640.869 37.7962 642.681 35.1302 645.743C34.2795 646.76 33.5212 647.851 32.8641 649.003C30.391 653.145 28.3808 658.454 30.8165 662.619C32.7758 665.969 36.8943 667.279 40.6714 668.171C45.4455 669.299 50.4058 670.202 55.235 669.34C60.0642 668.478 64.7838 665.521 66.5057 660.927C66.8441 659.772 67.2464 658.637 67.7107 657.527C70.3282 652.374 78.5382 652.318 81.217 647.197C83.0917 643.613 81.3684 639.28 79.6459 635.621L74.3848 624.444C72.6388 620.735 65.5611 622.868 61.8714 621.979C57.0591 620.82 52.0848 619.543 48.6229 624.263Z" fill="#272727"/>
<path d="M10.1917 265.418L58.5394 340.242C58.5394 340.242 88.4689 378.23 97.678 360.963C106.887 343.696 65.4462 314.917 65.4462 314.917L34.3655 257.36L10.1917 265.418Z" fill="#F7C8AC"/>
<path d="M34.3655 124.98L25.1564 122.677C25.1564 122.677 6.73826 128.433 2.13372 152.607C-2.47081 176.781 0.982582 273.476 6.73826 274.627C12.4939 275.778 35.1655 257.791 38.7945 261.604C42.4235 265.418 30.9121 245.849 34.3655 235.489C37.8189 225.128 34.3655 124.98 34.3655 124.98Z" fill="#272727"/>
<path d="M467.159 176.363H437.407V183.525H467.159V176.363Z" fill="black"/>
<path d="M570.191 176.363H559.722V183.525H570.191V176.363Z" fill="black"/>
<path d="M591.127 176.363H580.659V183.525H591.127V176.363Z" fill="black"/>
<path d="M548.703 176.363H477.628V183.525H548.703V176.363Z" fill="black"/>
<path d="M429.693 222.644H399.941V229.807H429.693V222.644Z" fill="black"/>
<path d="M532.725 222.644H522.256V229.807H532.725V222.644Z" fill="black"/>
<path d="M553.661 222.644H543.193V229.807H553.661V222.644Z" fill="black"/>
<path d="M511.237 222.644H440.162V229.807H511.237V222.644Z" fill="black"/>
<path d="M552.56 192.341H522.807V199.503H552.56V192.341Z" fill="black"/>
<path d="M592.78 192.341H563.028V199.503H592.78V192.341Z" fill="black"/>
<path d="M410.409 192.341H399.941V199.503H410.409V192.341Z" fill="black"/>
<path d="M431.346 192.341H420.878V199.503H431.346V192.341Z" fill="black"/>
<path d="M512.89 192.341H441.815V199.503H512.89V192.341Z" fill="black"/>
<path d="M490.851 207.768H461.099V214.931H490.851V207.768Z" fill="black"/>
<path d="M450.63 207.768H420.878V214.931H450.63V207.768Z" fill="black"/>
<path d="M410.409 207.768H399.941V214.931H410.409V207.768Z" fill="black"/>
<path d="M592.78 207.768H582.312V214.931H592.78V207.768Z" fill="black"/>
<path d="M571.843 207.768H500.768V214.931H571.843V207.768Z" fill="black"/>
<path d="M107.5 94C126.554 94 142 78.5538 142 59.5C142 40.4462 126.554 25 107.5 25C88.4462 25 73 40.4462 73 59.5C73 78.5538 88.4462 94 107.5 94Z" fill="#F7C8AC"/>
<path d="M142.096 65.8889C141.647 67.6901 140.74 71.9789 139.323 72C138.166 72.0169 137.058 53.4109 138.214 50.3333C139.542 46.7977 136.052 42.3253 133.423 40.0294C128.696 35.9014 118.203 44.7654 107.532 40.7499C107.25 40.6437 107.306 40.6556 103.937 39.309C93.5687 35.1647 93.0237 35.0451 92.4297 34.986C87.4037 34.4879 81.2699 38.6082 78.7653 43.6319C76.1616 48.854 78.337 53.3331 75.8885 65.967C75.6032 67.4396 75.1551 69.5384 74.4502 69.5694C73.1614 69.6257 71.903 62.7297 71.5735 60.9236C70.1927 53.3563 68.8614 46.0607 71.5735 37.868C71.8693 36.9744 73.6926 33.6576 77.3269 27.0607C82.5627 17.5571 85.1961 12.7874 85.9571 11.9304C91.4148 5.78167 101.349 0.172569 109.69 2.5641C113.906 3.77289 113.15 5.71623 118.32 7.60751C127.534 10.9778 135.542 6.85606 137.019 9.76897C137.801 11.312 135.612 12.5841 135.58 15.5329C135.526 20.5925 141.913 22.0545 145.649 27.0607C147.657 29.7519 151.094 29.7808 142.096 65.8889Z" fill="#272727"/>
</g>
</g>
<defs>
<clipPath id="clip0_513_75">
<rect width="712" height="670" fill="white"/>
</clipPath>
</defs>
</svg>
