<svg width="64" height="24" viewBox="0 0 64 24" fill="none" xmlns="http://www.w3.org/2000/svg">
<g clip-path="url(#clip0_326_4)">
<path d="M12.4186 6.256V6.598C12.0346 6.682 11.6206 6.85 11.1766 7.102C10.7446 7.354 10.2886 7.762 9.8086 8.326L6.4246 12.358L7.4686 10.864L11.7526 17.542C11.9206 17.818 12.1006 18.04 12.2926 18.208C12.4846 18.376 12.7366 18.52 13.0486 18.64V19C12.6286 18.976 12.1606 18.964 11.6446 18.964C11.1286 18.952 10.6606 18.946 10.2406 18.946C9.9886 18.946 9.6826 18.952 9.3226 18.964C8.9626 18.964 8.5066 18.976 7.9546 19V18.64C8.4466 18.616 8.7406 18.55 8.8366 18.442C8.9446 18.322 8.9026 18.118 8.7106 17.83L6.1006 13.6C5.9326 13.324 5.7826 13.12 5.6506 12.988C5.5186 12.844 5.3866 12.748 5.2546 12.7C5.1226 12.64 4.9486 12.604 4.7326 12.592V12.214C5.2606 12.202 5.7286 12.058 6.1366 11.782C6.5566 11.506 7.0126 11.086 7.5046 10.522L8.5666 9.244C9.0226 8.704 9.2866 8.242 9.3586 7.858C9.4426 7.462 9.3646 7.156 9.1246 6.94C8.8966 6.724 8.5426 6.61 8.0626 6.598V6.256C8.3626 6.268 8.6446 6.28 8.9086 6.292C9.1846 6.292 9.4666 6.298 9.7546 6.31C10.0546 6.31 10.3786 6.31 10.7266 6.31C11.0746 6.31 11.3866 6.304 11.6626 6.292C11.9506 6.28 12.2026 6.268 12.4186 6.256ZM6.1906 6.256V6.616C5.8066 6.628 5.5126 6.676 5.3086 6.76C5.1166 6.832 4.9906 6.976 4.9306 7.192C4.8706 7.396 4.8406 7.72 4.8406 8.164V17.092C4.8406 17.524 4.8706 17.848 4.9306 18.064C5.0026 18.28 5.1346 18.424 5.3266 18.496C5.5186 18.568 5.8066 18.616 6.1906 18.64V19C5.8666 18.976 5.4586 18.964 4.9666 18.964C4.4746 18.952 3.9766 18.946 3.4726 18.946C2.8966 18.946 2.3506 18.952 1.8346 18.964C1.3306 18.964 0.928602 18.976 0.628602 19V18.64C1.0126 18.616 1.3006 18.568 1.4926 18.496C1.6846 18.424 1.8106 18.28 1.8706 18.064C1.9426 17.848 1.9786 17.524 1.9786 17.092V8.164C1.9786 7.72 1.9426 7.396 1.8706 7.192C1.8106 6.976 1.6786 6.832 1.4746 6.76C1.2826 6.676 1.0006 6.628 0.628602 6.616V6.256C0.928602 6.268 1.3306 6.28 1.8346 6.292C2.3506 6.304 2.8966 6.31 3.4726 6.31C3.9766 6.31 4.4746 6.304 4.9666 6.292C5.4586 6.28 5.8666 6.268 6.1906 6.256ZM13.4782 6.256C13.7902 6.268 14.1982 6.28 14.7022 6.292C15.2062 6.304 15.7102 6.31 16.2142 6.31C16.7902 6.31 17.3482 6.304 17.8882 6.292C18.4282 6.28 18.8122 6.274 19.0402 6.274C20.5282 6.274 21.6382 6.538 22.3702 7.066C23.1142 7.594 23.4862 8.272 23.4862 9.1C23.4862 9.52 23.3602 9.946 23.1082 10.378C22.8562 10.81 22.4662 11.194 21.9382 11.53C21.4102 11.866 20.7262 12.112 19.8862 12.268V12.304C21.0142 12.388 21.9082 12.592 22.5682 12.916C23.2282 13.24 23.7022 13.63 23.9902 14.086C24.2782 14.542 24.4222 15.016 24.4222 15.508C24.4222 16.264 24.2242 16.9 23.8282 17.416C23.4322 17.932 22.8622 18.328 22.1182 18.604C21.3742 18.868 20.4862 19 19.4542 19C19.1662 19 18.7522 18.994 18.2122 18.982C17.6722 18.958 17.0182 18.946 16.2502 18.946C15.7222 18.946 15.2062 18.952 14.7022 18.964C14.1982 18.964 13.7902 18.976 13.4782 19V18.64C13.8622 18.616 14.1502 18.568 14.3422 18.496C14.5342 18.424 14.6602 18.28 14.7202 18.064C14.7922 17.848 14.8282 17.524 14.8282 17.092V8.164C14.8282 7.72 14.7922 7.396 14.7202 7.192C14.6602 6.976 14.5282 6.832 14.3242 6.76C14.1322 6.676 13.8502 6.628 13.4782 6.616V6.256ZM18.8062 6.616C18.3382 6.616 18.0322 6.718 17.8882 6.922C17.7562 7.126 17.6902 7.54 17.6902 8.164V17.092C17.6902 17.512 17.7202 17.83 17.7802 18.046C17.8522 18.262 17.9722 18.406 18.1402 18.478C18.3202 18.55 18.5842 18.586 18.9322 18.586C19.7962 18.586 20.4262 18.316 20.8222 17.776C21.2302 17.224 21.4342 16.444 21.4342 15.436C21.4342 14.512 21.2002 13.798 20.7322 13.294C20.2762 12.79 19.5142 12.538 18.4462 12.538H16.9162C16.9162 12.538 16.9162 12.49 16.9162 12.394C16.9162 12.286 16.9162 12.232 16.9162 12.232H18.4642C19.0282 12.232 19.4602 12.1 19.7602 11.836C20.0602 11.56 20.2702 11.2 20.3902 10.756C20.5102 10.3 20.5702 9.814 20.5702 9.298C20.5702 8.41 20.4322 7.744 20.1562 7.3C19.8802 6.844 19.4302 6.616 18.8062 6.616ZM30.036 9.442C30.912 9.442 31.68 9.604 32.34 9.928C33 10.252 33.516 10.774 33.888 11.494C34.26 12.214 34.446 13.168 34.446 14.356C34.446 15.544 34.26 16.498 33.888 17.218C33.516 17.926 33 18.442 32.34 18.766C31.68 19.09 30.912 19.252 30.036 19.252C29.184 19.252 28.422 19.09 27.75 18.766C27.09 18.442 26.568 17.926 26.184 17.218C25.812 16.498 25.626 15.544 25.626 14.356C25.626 13.168 25.812 12.214 26.184 11.494C26.568 10.774 27.09 10.252 27.75 9.928C28.422 9.604 29.184 9.442 30.036 9.442ZM30.036 9.802C29.556 9.802 29.154 10.162 28.83 10.882C28.506 11.59 28.344 12.748 28.344 14.356C28.344 15.964 28.506 17.122 28.83 17.83C29.154 18.538 29.556 18.892 30.036 18.892C30.528 18.892 30.93 18.538 31.242 17.83C31.566 17.122 31.728 15.964 31.728 14.356C31.728 12.748 31.566 11.59 31.242 10.882C30.93 10.162 30.528 9.802 30.036 9.802ZM40.2137 9.442C41.0897 9.442 41.8577 9.604 42.5177 9.928C43.1777 10.252 43.6937 10.774 44.0657 11.494C44.4377 12.214 44.6237 13.168 44.6237 14.356C44.6237 15.544 44.4377 16.498 44.0657 17.218C43.6937 17.926 43.1777 18.442 42.5177 18.766C41.8577 19.09 41.0897 19.252 40.2137 19.252C39.3617 19.252 38.5997 19.09 37.9277 18.766C37.2677 18.442 36.7457 17.926 36.3617 17.218C35.9897 16.498 35.8037 15.544 35.8037 14.356C35.8037 13.168 35.9897 12.214 36.3617 11.494C36.7457 10.774 37.2677 10.252 37.9277 9.928C38.5997 9.604 39.3617 9.442 40.2137 9.442ZM40.2137 9.802C39.7337 9.802 39.3317 10.162 39.0077 10.882C38.6837 11.59 38.5217 12.748 38.5217 14.356C38.5217 15.964 38.6837 17.122 39.0077 17.83C39.3317 18.538 39.7337 18.892 40.2137 18.892C40.7057 18.892 41.1077 18.538 41.4197 17.83C41.7437 17.122 41.9057 15.964 41.9057 14.356C41.9057 12.748 41.7437 11.59 41.4197 10.882C41.1077 10.162 40.7057 9.802 40.2137 9.802ZM49.2256 4.906V17.326C49.2256 17.83 49.3036 18.172 49.4596 18.352C49.6276 18.532 49.9096 18.622 50.3056 18.622V19C50.0776 18.988 49.7416 18.976 49.2976 18.964C48.8656 18.94 48.4216 18.928 47.9656 18.928C47.4976 18.928 47.0236 18.94 46.5436 18.964C46.0756 18.976 45.7216 18.988 45.4816 19V18.622C45.9016 18.622 46.1956 18.532 46.3636 18.352C46.5436 18.172 46.6336 17.83 46.6336 17.326V7.066C46.6336 6.526 46.5496 6.13 46.3816 5.878C46.2256 5.614 45.9256 5.482 45.4816 5.482V5.104C45.8656 5.14 46.2376 5.158 46.5976 5.158C47.0896 5.158 47.5576 5.14 48.0016 5.104C48.4456 5.056 48.8536 4.99 49.2256 4.906ZM55.0936 9.694V10.054C54.7216 10.126 54.3496 10.282 53.9776 10.522C53.6056 10.762 53.2276 11.068 52.8436 11.44L51.4576 12.88L51.6376 12.538L54.7156 17.686C54.8476 17.902 54.9856 18.094 55.1296 18.262C55.2736 18.43 55.4476 18.55 55.6516 18.622V19C55.4716 18.988 55.2016 18.976 54.8416 18.964C54.4816 18.94 54.1216 18.928 53.7616 18.928C53.3176 18.928 52.8736 18.94 52.4296 18.964C51.9856 18.976 51.6556 18.988 51.4396 19V18.622C51.6796 18.622 51.8416 18.568 51.9256 18.46C52.0096 18.34 51.9976 18.19 51.8896 18.01L50.1076 14.788C49.9636 14.56 49.8196 14.416 49.6756 14.356C49.5436 14.284 49.3636 14.242 49.1356 14.23V13.888C49.3876 13.864 49.6036 13.822 49.7836 13.762C49.9756 13.702 50.1496 13.588 50.3056 13.42L51.6736 12.088C52.0816 11.704 52.2856 11.362 52.2856 11.062C52.2856 10.762 52.1536 10.522 51.8896 10.342C51.6376 10.162 51.3016 10.066 50.8816 10.054V9.694C51.2176 9.706 51.5836 9.718 51.9796 9.73C52.3756 9.742 52.7116 9.748 52.9876 9.748C53.2276 9.748 53.4796 9.748 53.7436 9.748C54.0196 9.736 54.2776 9.73 54.5176 9.73C54.7576 9.718 54.9496 9.706 55.0936 9.694ZM59.6649 9.442C60.1689 9.442 60.6069 9.508 60.9789 9.64C61.3629 9.76 61.6389 9.88 61.8069 10C62.2149 10.276 62.4669 10.096 62.5629 9.46H62.9409C62.9169 9.796 62.8989 10.21 62.8869 10.702C62.8749 11.182 62.8689 11.824 62.8689 12.628H62.4909C62.4309 12.184 62.3169 11.746 62.1489 11.314C61.9809 10.882 61.7349 10.528 61.4109 10.252C61.0989 9.976 60.6909 9.838 60.1869 9.838C59.8389 9.838 59.5449 9.94 59.3049 10.144C59.0649 10.336 58.9449 10.618 58.9449 10.99C58.9449 11.35 59.0529 11.668 59.2689 11.944C59.4849 12.208 59.7609 12.466 60.0969 12.718C60.4449 12.958 60.8049 13.216 61.1769 13.492C61.5729 13.792 61.9329 14.092 62.2569 14.392C62.5809 14.68 62.8389 14.998 63.0309 15.346C63.2229 15.694 63.3189 16.108 63.3189 16.588C63.3189 17.128 63.1629 17.602 62.8509 18.01C62.5389 18.406 62.1249 18.712 61.6089 18.928C61.1049 19.144 60.5409 19.252 59.9169 19.252C59.5569 19.252 59.2329 19.216 58.9449 19.144C58.6689 19.072 58.4289 18.982 58.2249 18.874C58.0689 18.802 57.9189 18.736 57.7749 18.676C57.6429 18.604 57.5169 18.544 57.3969 18.496C57.2769 18.46 57.1689 18.502 57.0729 18.622C56.9889 18.742 56.9229 18.91 56.8749 19.126H56.4969C56.5209 18.742 56.5389 18.274 56.5509 17.722C56.5629 17.17 56.5689 16.438 56.5689 15.526H56.9469C57.0189 16.174 57.1509 16.75 57.3429 17.254C57.5349 17.746 57.7929 18.136 58.1169 18.424C58.4529 18.7 58.8729 18.838 59.3769 18.838C59.5809 18.838 59.7789 18.796 59.9709 18.712C60.1629 18.628 60.3189 18.49 60.4389 18.298C60.5709 18.106 60.6369 17.86 60.6369 17.56C60.6369 17.032 60.4629 16.594 60.1149 16.246C59.7789 15.898 59.3469 15.52 58.8189 15.112C58.4349 14.8 58.0689 14.494 57.7209 14.194C57.3849 13.882 57.1089 13.546 56.8929 13.186C56.6769 12.814 56.5689 12.394 56.5689 11.926C56.5689 11.386 56.7129 10.93 57.0009 10.558C57.2889 10.186 57.6669 9.91 58.1349 9.73C58.6149 9.538 59.1249 9.442 59.6649 9.442Z" fill="#242424"/>
</g>
<defs>
<clipPath id="clip0_326_4">
<rect width="64" height="24" fill="white"/>
</clipPath>
</defs>
</svg>
